<svg xmlns="http://www.w3.org/2000/svg" xmlns:xlink="http://www.w3.org/1999/xlink" width="1080" zoomAndPan="magnify" viewBox="0 0 810 809.999993" height="1080" preserveAspectRatio="xMidYMid meet" version="1.0"><defs><g/></defs><g fill="#f5a800" fill-opacity="1"><g transform="translate(0.0000035, 582.320807)"><g><path d="M 262.847656 -410.527344 C 115.71875 -410.527344 23.144531 -326.769531 23.144531 -200.03125 C 23.144531 -73.289062 115.71875 10.46875 262.847656 10.46875 C 409.976562 10.46875 502.003906 -73.289062 502.003906 -200.03125 C 502.003906 -326.769531 409.976562 -410.527344 262.847656 -410.527344 Z M 262.847656 -328.421875 C 342.75 -328.421875 391.792969 -280.480469 391.792969 -200.03125 C 391.792969 -120.128906 342.75 -71.636719 262.847656 -71.636719 C 182.945312 -71.636719 133.351562 -120.128906 133.351562 -200.03125 C 133.351562 -279.929688 182.945312 -328.421875 262.847656 -328.421875 Z M 262.847656 -328.421875 "/></g></g></g><g fill="#425cc7" fill-opacity="1"><g transform="translate(336.508287, 582.345067)"><g><path d="M -11.019531 -400.007812 L 163.089844 0 L 264.46875 0 L 440.78125 -400.007812 L 331.136719 -400.007812 L 214.328125 -112.949219 L 99.175781 -400.007812 Z M -11.019531 -400.007812 "/></g></g></g></svg>